<?xml version="1.0" encoding="UTF-8" standalone="no"?>
<!-- Created with Inkscape (http://www.inkscape.org/) -->

<svg
   xmlns:dc="http://purl.org/dc/elements/1.1/"
   xmlns:cc="http://creativecommons.org/ns#"
   xmlns:rdf="http://www.w3.org/1999/02/22-rdf-syntax-ns#"
   xmlns:svg="http://www.w3.org/2000/svg"
   xmlns="http://www.w3.org/2000/svg"
   xmlns:xlink="http://www.w3.org/1999/xlink"
   xmlns:sodipodi="http://sodipodi.sourceforge.net/DTD/sodipodi-0.dtd"
   xmlns:inkscape="http://www.inkscape.org/namespaces/inkscape"
   width="9500"
   height="1000"
   viewBox="0 0 9499.9997 999.99997"
   id="svg2"
   version="1.1"
   inkscape:version="0.91 r13725"
   sodipodi:docname="logo.svg">
  <defs
     id="defs4">
    <linearGradient
       inkscape:collect="always"
       xlink:href="#linearGradient4671"
       id="linearGradient1475"
       gradientUnits="userSpaceOnUse"
       gradientTransform="matrix(0.562541,0,0,0.567972,342.28539,378.75107)"
       x1="150.96111"
       y1="192.35176"
       x2="112.03144"
       y2="137.27299" />
    <linearGradient
       id="linearGradient4671">
      <stop
         style="stop-color:#ffd43b;stop-opacity:1;"
         offset="0"
         id="stop4673" />
      <stop
         style="stop-color:#ffe873;stop-opacity:1"
         offset="1"
         id="stop4675" />
    </linearGradient>
    <linearGradient
       inkscape:collect="always"
       xlink:href="#linearGradient4689"
       id="linearGradient1478"
       gradientUnits="userSpaceOnUse"
       gradientTransform="matrix(0.562541,0,0,0.567972,342.28539,378.75107)"
       x1="26.648937"
       y1="20.603781"
       x2="135.66525"
       y2="114.39767" />
    <linearGradient
       id="linearGradient4689">
      <stop
         style="stop-color:#5a9fd4;stop-opacity:1;"
         offset="0"
         id="stop4691" />
      <stop
         style="stop-color:#306998;stop-opacity:1;"
         offset="1"
         id="stop4693" />
    </linearGradient>
  </defs>
  <sodipodi:namedview
     id="base"
     pagecolor="#ffffff"
     bordercolor="#666666"
     borderopacity="1.0"
     inkscape:pageopacity="0.0"
     inkscape:pageshadow="2"
     inkscape:zoom="0.12"
     inkscape:cx="4860.8008"
     inkscape:cy="1661.437"
     inkscape:document-units="px"
     inkscape:current-layer="layer1"
     showgrid="false"
     units="px"
     inkscape:window-width="1920"
     inkscape:window-height="1023"
     inkscape:window-x="0"
     inkscape:window-y="27"
     inkscape:window-maximized="1"
     fit-margin-top="0"
     fit-margin-left="0"
     fit-margin-right="0"
     fit-margin-bottom="0" />
  <metadata
     id="metadata7">
    <rdf:RDF>
      <cc:Work
         rdf:about="">
        <dc:format>image/svg+xml</dc:format>
        <dc:type
           rdf:resource="http://purl.org/dc/dcmitype/StillImage" />
        <dc:title></dc:title>
      </cc:Work>
    </rdf:RDF>
  </metadata>
  <g
     inkscape:label="Layer 1"
     inkscape:groupmode="layer"
     id="layer1"
     transform="translate(-0.5,-51.862228)">
    <rect
       style="fill:#ffa500;fill-opacity:1;stroke:none;stroke-opacity:1"
       id="rect4159"
       width="1000"
       height="1000"
       x="0.5"
       y="51.862228"
       rx="25"
       ry="25" />
    <path
       id="rect4157"
       style="fill:#ffffff;fill-opacity:1;stroke:#808080;stroke-width:5;stroke-miterlimit:4;stroke-dasharray:none;stroke-opacity:1"
       d="m 895.5,951.86223 c 2.77,0 5,-2.23 5,-5 l 0,-790 c 0,-2.77 -2.23,-5 -5,-5 l -790,0 c -2.77,0 -5,2.23 -5,5 l 0,790 c 0,2.77 2.23,5 5,5 l 344.5,0 0,-149.99999 -194.5,0 c -2.77,0 -5,-2.23 -5,-5 l 0,-490 c 0,-2.77 2.23,-5 5,-5 l 490,0 c 2.77,0 5,2.23 5,5 l 0,490 c 0,2.77 -2.23,5 -5,5 l -195.5,0 0,149.99999 z"
       inkscape:connector-curvature="0"
       sodipodi:nodetypes="ssssssssccssssssssccs" />
    <rect
       style="fill:#ffffff;fill-opacity:1;stroke:#808080;stroke-width:5;stroke-miterlimit:4;stroke-dasharray:none;stroke-opacity:1"
       id="rect4230"
       width="295.77466"
       height="295.77466"
       x="352.11267"
       y="404.47488"
       rx="5"
       ry="5" />
    <g
       id="g4226"
       transform="matrix(2.2489826,0,0,2.2489826,-428.50856,-453.5217)">
      <path
         id="path1948"
         d="m 412.19529,390.45436 c -4.5837,0.0213 -8.961,0.41222 -12.8125,1.09375 -11.3463,2.00451 -13.4063,6.20011 -13.4063,13.9375 l 0,10.21875 26.8125,0 0,3.40625 -26.8125,0 -10.0625,0 c -7.7924,0 -14.6157,4.68372 -16.75,13.59375 -2.4618,10.21297 -2.571,16.58603 0,27.25001 1.9059,7.93785 6.4576,13.59375 14.25,13.59375 l 9.2188,0 0,-12.25 c 0,-8.8499 7.6571,-16.65625 16.75,-16.65625 l 26.7812,0 c 7.455,0 13.4063,-6.13817 13.4063,-13.62501 l 0,-25.53125 c 0,-7.26633 -6.13,-12.72477 -13.4063,-13.9375 -4.606,-0.76672 -9.3851,-1.11504 -13.9687,-1.09375 z m -14.5,8.21875 c 2.7695,0 5.0312,2.29865 5.0312,5.125 0,2.81634 -2.2617,5.09375 -5.0312,5.09375 -2.7795,0 -5.0313,-2.27741 -5.0313,-5.09375 0,-2.82635 2.2518,-5.125 5.0313,-5.125 z"
         style="fill:url(#linearGradient1478);fill-opacity:1"
         inkscape:connector-curvature="0" />
      <path
         id="path1950"
         d="m 442.91399,419.11061 0,11.90625 c 0,9.23076 -7.8259,17.00001 -16.75,17.00001 l -26.7812,0 c -7.3359,0 -13.4063,6.27848 -13.4063,13.625 l 0,25.53125 c 0,7.26634 6.3186,11.54032 13.4063,13.625 8.4873,2.49561 16.6262,2.94663 26.7812,0 6.7502,-1.95439 13.4063,-5.88761 13.4063,-13.625 l 0,-10.21875 -26.7813,0 0,-3.40625 26.7813,0 13.4062,0 c 7.7925,0 10.6963,-5.43541 13.4063,-13.59375 2.7993,-8.39889 2.6802,-16.47578 0,-27.25001 -1.9258,-7.75744 -5.6039,-13.59375 -13.4063,-13.59375 l -10.0625,0 z m -15.0625,64.65626 c 2.7795,0 5.0313,2.27742 5.0313,5.09375 0,2.82635 -2.2518,5.125 -5.0313,5.125 -2.7695,0 -5.0312,-2.29865 -5.0312,-5.125 0,-2.81633 2.2617,-5.09375 5.0312,-5.09375 z"
         style="fill:url(#linearGradient1475);fill-opacity:1"
         inkscape:connector-curvature="0" />
    </g>
    <text
       xml:space="preserve"
       style="font-style:normal;font-weight:normal;font-size:253.8973999px;line-height:125%;font-family:sans-serif;letter-spacing:0px;word-spacing:0px;fill:#000000;fill-opacity:1;stroke:none;stroke-width:1px;stroke-linecap:butt;stroke-linejoin:miter;stroke-opacity:1"
       x="1200"
       y="952.36224"
       id="text3347"
       sodipodi:linespacing="125%"><tspan
         sodipodi:role="line"
         id="tspan3349"
         x="1200"
         y="952.36224"
         style="font-style:normal;font-variant:normal;font-weight:normal;font-stretch:normal;font-size:1142.53833008px;font-family:'SF Square Head';-inkscape-font-specification:'SF Square Head'">NXT-PYTHON</tspan></text>
  </g>
</svg>
